# xmcd CD database file
#
# Track frame offsets:
#	150
#	19495
#	35954
#	55090
#	74869
#	93201
#	113743
#	137878
#	166200
#	184763
#	207044
#	222728
#	245835
#	261352
#	282493
#	298148
#	319203
#	334409
#
# Disc length: 4649 seconds
#
# Revision: 0
# Processed by: cddbd v1.5.2PL0 Copyright (c) Steve Scherf et al.
# Submitted via: CDex 1.70beta2
#
DISCID=36122712
DTITLE=Salsa Club - Salsa Club [CD 1)
DYEAR=2010
DGENRE=Salsa
TTITLE0=Puerto Rican Power - Esa Mujer
TTITLE1=Yuri Buenaventura - Marruecos
TTITLE2=Isaac Delgado - Dime Cual Es
TTITLE3=Anthony Cruz - Mi Chuli Chuli
TTITLE4=La Sonora Carruseles - Quinto y Trompeta
TTITLE5=Jesus Pagan y su Orchestra - Te Amo Tanto
TTITLE6=Los Van Van - Disco Azucar
TTITLE7=Joe Arroyo - Rebelion
TTITLE8=Fruco y sus Tesos - Manyoma
TTITLE9=Adalberto Alvarez - Hablando Como Extranjero
TTITLE10=Ismael Rivera - Para Mi Gente
TTITLE11=Cheo Feliciano - Salsalutando
TTITLE12=Osdalgia - La Tuyo No Alcanza
TTITLE13=Afro Cuban Jazz Project (feat. Maraca) - La Fiesta Esta Comenzada
TTITLE14=La Sonora Poncena - La Maleta
TTITLE15=La Lupe and Tito Puente - La Lloradora
TTITLE16=Benny More - El Canonero
TTITLE17=Machito - Si Si No No
EXTD=YEAR: 2010
EXTT0=
EXTT1=
EXTT2=
EXTT3=
EXTT4=
EXTT5=
EXTT6=
EXTT7=
EXTT8=
EXTT9=
EXTT10=
EXTT11=
EXTT12=
EXTT13=
EXTT14=
EXTT15=
EXTT16=
EXTT17=
PLAYORDER=
